<?xml version="1.0" encoding="utf-8"?>
<!-- Generator: Adobe Illustrator 19.2.1, SVG Export Plug-In . SVG Version: 6.00 Build 0)  -->
<svg version="1.1" id="Layer_1" xmlns="http://www.w3.org/2000/svg" xmlns:xlink="http://www.w3.org/1999/xlink" x="0px" y="0px"
	 viewBox="0 0 500 500" style="enable-background:new 0 0 500 500;" xml:space="preserve">
<style type="text/css">
	.st0{fill:#FF7F66;}
	.st1{fill:none;stroke:#2185C5;stroke-width:7;stroke-miterlimit:10;}
	.st2{fill:#78C0F9;}
	.st3{fill:#FFDBE6;}
	.st4{fill:none;stroke:#78C0F9;stroke-width:10;stroke-miterlimit:10;}
	.st5{fill:none;stroke:#000000;stroke-miterlimit:10;}
	.st6{fill:none;stroke:#FE86A4;stroke-width:4;stroke-linecap:round;stroke-miterlimit:10;}
	.st7{fill:none;stroke:#FFFFFF;stroke-width:5;stroke-linecap:round;stroke-miterlimit:10;}
	.st8{opacity:0.5;fill:#FE86A4;}
	.st9{fill:#2185C5;}
	.st10{fill:#F96450;}
	.st11{fill:none;stroke:#78C0F9;stroke-width:7;stroke-miterlimit:10;}
	.st12{fill:#FE86A4;}
</style>
<path class="st9" d="M453.1,326.4c0,8.9,0,25.7,0,25.7s-123.9-12.9-205.9-12.9c-82,0-205.9,12.9-205.9,12.9s0-17.7,0-25.7
	c0-10.2,8.2-12.1,10.1-12.9H443C447.7,314.2,453.1,317.6,453.1,326.4z"/>
<path class="st9" d="M206.8,302.1c0,0-133.6,8.6-150.3,10.7c8.4-2.1,14-8.6,17.6-15.1c4.3-7.7,5.8-15.4,5.8-15.4
	C94,120.3,169.1,61.4,224,48.5L206.8,302.1z"/>
<path class="st2" d="M440.5,313.2c-85.8-11-167.5-12.8-233.6-11.1C70.4,222.8,224,48.5,224,48.5c8.5-2,16.5-2.9,23.7-2.9
	c7,0,14.8,0.8,22.9,2.7c54.5,12.3,128.4,70.5,143.9,235.9v-1.8C414.5,307,433.4,312.1,440.5,313.2z"/>
<circle class="st11" cx="247.2" cy="39.4" r="29.4"/>
<path class="st3" d="M247.2,492.5c71.9,0,130-58.9,130-130c0,0-37.6-14.2-130-14.2s-130,14.2-130,14.2
	C117.2,433.6,175.3,492.5,247.2,492.5z"/>
<circle cx="180.9" cy="404.2" r="16.6"/>
<circle cx="321" cy="404.2" r="16.6"/>
<path class="st6" d="M227.2,426.5c5.1,7.4,14.7,12.5,25.7,12.5c10.2,0,19.3-4.4,24.6-11"/>
<path class="st7" d="M276.6,67.6c0,0,104,40.1,116.8,214.9"/>
<ellipse class="st8" cx="167.9" cy="429.6" rx="10.5" ry="9.3"/>
<ellipse class="st8" cx="335.1" cy="429.6" rx="10.5" ry="9.3"/>
<path class="st9" d="M443,313.6H51.4c1.8-0.1,3.5-0.3,5.1-0.7c31-4,197.9-23.4,383.9,0.4c0,0,0,0,0.1,0c1,0.2,1.8,0.2,2.2,0.3
	C442.8,313.5,442.9,313.5,443,313.6z"/>
<path class="st12" d="M51.4,313.6c0,0,1.8-0.3,5.1-0.7C54.9,313.3,53.2,313.5,51.4,313.6z"/>
<path class="st12" d="M442.7,313.5c-0.4,0-1.2-0.1-2.2-0.3C441.3,313.3,442,313.4,442.7,313.5z"/>
</svg>
